# xmcd CD database file
#
# Track frame offsets:
#	182
#	30055
#	53540
#	82010
#	107670
#	132797
#	158137
#	184670
#
# Disc length: 2848 seconds
#
# Revision: 0
# Processed by: cddbd v1.4PL0 Copyright (c) Steve Scherf et al.
# Submitted via: CDex 1.50beta9
#
DISCID=530b1e08
DTITLE=Grupo Niche - Querer Es Poder
DYEAR=1993
DGENRE=Salsa
TTITLE0=Homenaje De Corazon
TTITLE1=Mi Mama Me Ha Dicho
TTITLE2=Buenaventura Y Caney
TTITLE3=Digo Yo
TTITLE4=Enamorado De Ti
TTITLE5=Consejo De Madre
TTITLE6=Nicolasa Santos
TTITLE7=Corazon Sin Corazon
EXTD=YEAR: 1993
EXTT0=
EXTT1=
EXTT2=
EXTT3=
EXTT4=
EXTT5=
EXTT6=
EXTT7=
PLAYORDER=
